<?xml version="1.0" encoding="UTF-8" standalone="no"?>
<svg
   xmlns:dc="http://purl.org/dc/elements/1.1/"
   xmlns:cc="http://creativecommons.org/ns#"
   xmlns:rdf="http://www.w3.org/1999/02/22-rdf-syntax-ns#"
   xmlns:svg="http://www.w3.org/2000/svg"
   xmlns="http://www.w3.org/2000/svg"
   xmlns:sodipodi="http://sodipodi.sourceforge.net/DTD/sodipodi-0.dtd"
   xmlns:inkscape="http://www.inkscape.org/namespaces/inkscape"
   version="1.0"
   width="116"
   height="47"
   viewBox="0 0 116 47"
   preserveAspectRatio="xMidYMid meet"
   id="svg16"
   sodipodi:docname="logo-white.svg"
   inkscape:version="1.0.2 (e86c870879, 2021-01-15)">
  <metadata
     id="metadata22">
    <rdf:RDF>
      <cc:Work
         rdf:about="">
        <dc:format>image/svg+xml</dc:format>
        <dc:type
           rdf:resource="http://purl.org/dc/dcmitype/StillImage" />
        <dc:title></dc:title>
      </cc:Work>
    </rdf:RDF>
  </metadata>
  <defs
     id="defs20" />
  <sodipodi:namedview
     pagecolor="#ffffff"
     bordercolor="#666666"
     borderopacity="1"
     objecttolerance="10"
     gridtolerance="10"
     guidetolerance="10"
     inkscape:pageopacity="0"
     inkscape:pageshadow="2"
     inkscape:window-width="1920"
     inkscape:window-height="1013"
     id="namedview18"
     showgrid="false"
     inkscape:pagecheckerboard="true"
     inkscape:zoom="6.3851153"
     inkscape:cx="173.95036"
     inkscape:cy="51.171348"
     inkscape:window-x="0"
     inkscape:window-y="0"
     inkscape:window-maximized="1"
     inkscape:current-layer="svg16" />
  <g
     fill="#ffffff"
     id="g14"
     transform="matrix(0.29554712,0,0,0.29178716,0.10786051,0.33069083)">
    <path
       d="M 11.3,157.9 C 5.4,155 2.4,151 0.9,144.4 -0.2,139.5 -0.1,137.5 1.3,130.5 10.6,85.4 72.5,20 122,2.9 c 8.5,-2.9 22.9,-3.3 27.7,-0.7 11,6.1 12.6,21.6 4.4,42.3 -3.9,9.6 -7.1,15.6 -16.3,29.7 l -7,10.8 -0.8,13.5 c -0.7,10.7 -1.3,14.6 -3,18.1 -5,10.1 -15.6,13.3 -32.7,9.8 -2.8,-0.5 -4.1,0 -10,4.4 -19.1,14.1 -37.1,23.7 -50.9,27.2 -10.1,2.6 -16.8,2.6 -22.1,-0.1 z M 33.6,145.5 C 46.9,141 64.2,131.2 78.2,120.3 L 83.9,115.8 83.3,91.9 82.7,68 h 5.6 5.7 v 17.3 c 0,9.4 0.4,17.8 0.9,18.5 0.5,0.9 3.3,-1.3 9.6,-8 C 115.2,84.6 119,78.9 119,74 c 0,-4.3 1.4,-6 5.1,-6 3.5,0 7.1,-4.3 13.2,-15.8 6,-11.4 9.8,-22.9 10,-30.4 0.1,-5.2 -0.2,-6.3 -2.2,-7.9 -4.9,-4 -16.3,-1.6 -33.6,7.1 C 86.9,33.3 61.6,54.9 40,82.1 c -16.6,20.8 -28,44.2 -28,57.3 0,8.6 7.8,10.7 21.6,6.1 z m 77.7,-28.9 c 5,-2.1 7,-5 7.5,-11.1 0.3,-3.4 0.1,-5.5 -0.6,-5.5 -1.2,0 -16.2,15.8 -16.2,17.1 0,1.4 5.6,1.1 9.3,-0.5 z"
       id="path2" />
    <path
       d="m 150.5,143.8 c -0.3,-0.7 -0.4,-12.8 -0.3,-26.8 l 0.3,-25.5 4,0.2 c 2.2,0.2 4.5,1 5.2,1.9 1,1.4 1.5,1.3 5.2,-0.5 12.3,-6.3 25.1,2.4 25.1,16.9 0,7.5 -3,13.3 -8.6,16.6 -3.7,2.2 -5.2,2.5 -10.1,2.1 -3.2,-0.3 -6.7,-0.6 -7.8,-0.8 -1.8,-0.4 -2,0.3 -2.5,8.1 l -0.5,8.5 -4.8,0.3 c -3.2,0.2 -4.9,-0.1 -5.2,-1 z M 174,119.5 c 6.6,-3.4 7.6,-12.1 1.9,-16.9 -4.1,-3.5 -8.3,-3.4 -12,0.3 -4.9,5 -3.5,14.7 2.5,17.1 3.1,1.3 4.4,1.2 7.6,-0.5 z"
       id="path4" />
    <path
       d="m 227.2,124.8 c -1.1,-2.9 -6.8,-16.5 -12.6,-30.3 -5.7,-13.7 -10.2,-25.3 -10,-25.7 0.3,-0.4 2.9,-0.8 5.9,-0.8 h 5.3 l 7.3,18.1 c 6.1,15.5 7.4,17.9 8.5,16.5 0.6,-0.9 3.8,-8.5 6.9,-16.9 3.2,-8.4 6.2,-15.8 6.8,-16.5 0.7,-0.8 2.8,-1.2 6.1,-1 4.3,0.3 5.1,0.6 4.8,2.2 -0.4,2 -16.1,39.8 -21.5,51.9 -2,4.2 -4,7.7 -4.5,7.7 -0.5,0 -1.9,-2.4 -3,-5.2 z"
       id="path6" />
    <path
       d="m 276.5,129.1 c -14.7,-3.6 -20,-19.6 -10.2,-30.8 3.9,-4.5 8.2,-6.3 14.7,-6.3 5.9,0 9.7,1.7 13.2,5.8 2.7,3.3 5.4,9 4.5,9.8 -0.3,0.3 -5.4,2.3 -11.3,4.5 -6,2.1 -11.3,4.4 -11.8,4.9 -2,2 1.7,3.1 8.1,2.5 6.1,-0.5 6.3,-0.5 7.7,2.3 0.8,1.5 1.1,3.3 0.8,3.9 -0.6,1 -10.7,4.5 -12.1,4.2 -0.3,-0.1 -1.9,-0.4 -3.6,-0.8 z m 4.8,-22.3 c 5,-2.2 5.9,-4.1 2.8,-5.8 -5.1,-2.7 -12.1,1.1 -12.1,6.5 0,3 0.6,2.9 9.3,-0.7 z"
       id="path8" />
    <path
       d="m 315.7,128.3 c -0.4,-0.3 -0.7,-8.4 -0.7,-18 V 93 h 3.5 c 1.9,0 4.5,0.5 5.8,1.1 1.9,0.9 3.1,0.7 5.5,-0.5 1.7,-0.9 5.4,-1.6 8.2,-1.6 4.3,0 5.6,0.5 8,2.8 3.5,3.5 4.2,7.9 3.8,22.7 l -0.3,11 h -5 -5 l -0.3,-12.4 c -0.1,-7.1 -0.7,-13 -1.4,-13.8 -1.5,-1.8 -6.3,-1.6 -8.3,0.4 -2.6,2.6 -3.4,5.5 -4.1,16.2 l -0.7,10.1 h -4.2 c -2.3,0 -4.5,-0.3 -4.8,-0.7 z"
       id="path10" />
    <path
       d="m 372.7,128.3 c -0.4,-0.3 -0.7,-5.6 -0.7,-11.7 0,-13.3 -0.5,-15.2 -3.6,-16 -3.3,-0.9 -3.4,-6.1 -0.1,-7.2 3.2,-1 3.7,-2.2 3.7,-9 0,-6.8 0.5,-7.4 6.5,-7.4 h 3.4 l 0.3,7.8 0.3,7.7 3.5,0.3 c 8.7,0.9 7.9,8.2 -0.9,8.2 H 382 v 14 14 h -4.3 c -2.4,0 -4.7,-0.3 -5,-0.7 z"
       id="path12" />
  </g>
</svg>
