<svg xmlns="http://www.w3.org/2000/svg" width="116" height="47" viewBox="0 0 116 47" preserveAspectRatio="xMidYMid meet"><g transform="matrix(0.29554712 0 0 0.29178716 0.10786051 0.33069083)" fill="#fff"><path d="M11.3 157.9C5.4 155 2.4 151 0.9 144.4-0.2 139.5-0.1 137.5 1.3 130.5 10.6 85.4 72.5 20 122 2.9c8.5-2.9 22.9-3.3 27.7-0.7 11 6.1 12.6 21.6 4.4 42.3-3.9 9.6-7.1 15.6-16.3 29.7l-7 10.8-0.8 13.5c-0.7 10.7-1.3 14.6-3 18.1-5 10.1-15.6 13.3-32.7 9.8-2.8-0.5-4.1 0-10 4.4-19.1 14.1-37.1 23.7-50.9 27.2-10.1 2.6-16.8 2.6-22.1-0.1zM33.6 145.5C46.9 141 64.2 131.2 78.2 120.3L83.9 115.8 83.3 91.9 82.7 68h5.6 5.7v17.3c0 9.4 0.4 17.8 0.9 18.5 0.5 0.9 3.3-1.3 9.6-8C115.2 84.6 119 78.9 119 74c0-4.3 1.4-6 5.1-6 3.5 0 7.1-4.3 13.2-15.8 6-11.4 9.8-22.9 10-30.4 0.1-5.2-0.2-6.3-2.2-7.9-4.9-4-16.3-1.6-33.6 7.1C86.9 33.3 61.6 54.9 40 82.1c-16.6 20.8-28 44.2-28 57.3 0 8.6 7.8 10.7 21.6 6.1zm77.7-28.9c5-2.1 7-5 7.5-11.1 0.3-3.4 0.1-5.5-0.6-5.5-1.2 0-16.2 15.8-16.2 17.1 0 1.4 5.6 1.1 9.3-0.5z"/><path d="m150.5 143.8c-0.3-0.7-0.4-12.8-0.3-26.8l0.3-25.5 4 0.2c2.2 0.2 4.5 1 5.2 1.9 1 1.4 1.5 1.3 5.2-0.5 12.3-6.3 25.1 2.4 25.1 16.9 0 7.5-3 13.3-8.6 16.6-3.7 2.2-5.2 2.5-10.1 2.1-3.2-0.3-6.7-0.6-7.8-0.8-1.8-0.4-2 0.3-2.5 8.1l-0.5 8.5-4.8 0.3c-3.2 0.2-4.9-0.1-5.2-1zM174 119.5c6.6-3.4 7.6-12.1 1.9-16.9-4.1-3.5-8.3-3.4-12 0.3-4.9 5-3.5 14.7 2.5 17.1 3.1 1.3 4.4 1.2 7.6-0.5z"/><path d="m227.2 124.8c-1.1-2.9-6.8-16.5-12.6-30.3-5.7-13.7-10.2-25.3-10-25.7 0.3-0.4 2.9-0.8 5.9-0.8h5.3l7.3 18.1c6.1 15.5 7.4 17.9 8.5 16.5 0.6-0.9 3.8-8.5 6.9-16.9 3.2-8.4 6.2-15.8 6.8-16.5 0.7-0.8 2.8-1.2 6.1-1 4.3 0.3 5.1 0.6 4.8 2.2-0.4 2-16.1 39.8-21.5 51.9-2 4.2-4 7.7-4.5 7.7-0.5 0-1.9-2.4-3-5.2z"/><path d="m276.5 129.1c-14.7-3.6-20-19.6-10.2-30.8 3.9-4.5 8.2-6.3 14.7-6.3 5.9 0 9.7 1.7 13.2 5.8 2.7 3.3 5.4 9 4.5 9.8-0.3 0.3-5.4 2.3-11.3 4.5-6 2.1-11.3 4.4-11.8 4.9-2 2 1.7 3.1 8.1 2.5 6.1-0.5 6.3-0.5 7.7 2.3 0.8 1.5 1.1 3.3 0.8 3.9-0.6 1-10.7 4.5-12.1 4.2-0.3-0.1-1.9-0.4-3.6-0.8zm4.8-22.3c5-2.2 5.9-4.1 2.8-5.8-5.1-2.7-12.1 1.1-12.1 6.5 0 3 0.6 2.9 9.3-0.7z"/><path d="m315.7 128.3c-0.4-0.3-0.7-8.4-0.7-18V93h3.5c1.9 0 4.5 0.5 5.8 1.1 1.9 0.9 3.1 0.7 5.5-0.5 1.7-0.9 5.4-1.6 8.2-1.6 4.3 0 5.6 0.5 8 2.8 3.5 3.5 4.2 7.9 3.8 22.7l-0.3 11h-5-5l-0.3-12.4c-0.1-7.1-0.7-13-1.4-13.8-1.5-1.8-6.3-1.6-8.3 0.4-2.6 2.6-3.4 5.5-4.1 16.2l-0.7 10.1h-4.2c-2.3 0-4.5-0.3-4.8-0.7z"/><path d="m372.7 128.3c-0.4-0.3-0.7-5.6-0.7-11.7 0-13.3-0.5-15.2-3.6-16-3.3-0.9-3.4-6.1-0.1-7.2 3.2-1 3.7-2.2 3.7-9 0-6.8 0.5-7.4 6.5-7.4h3.4l0.3 7.8 0.3 7.7 3.5 0.3c8.7 0.9 7.9 8.2-0.9 8.2H382v14 14h-4.3c-2.4 0-4.7-0.3-5-0.7z"/></g></svg>