<?xml version="1.0" encoding="UTF-8" standalone="no"?>
<svg
   xmlns:dc="http://purl.org/dc/elements/1.1/"
   xmlns:cc="http://creativecommons.org/ns#"
   xmlns:rdf="http://www.w3.org/1999/02/22-rdf-syntax-ns#"
   xmlns:svg="http://www.w3.org/2000/svg"
   xmlns="http://www.w3.org/2000/svg"
   xmlns:sodipodi="http://sodipodi.sourceforge.net/DTD/sodipodi-0.dtd"
   xmlns:inkscape="http://www.inkscape.org/namespaces/inkscape"
   version="1.0"
   width="392px"
   height="160px"
   viewBox="0 0 392 160"
   preserveAspectRatio="xMidYMid meet"
   id="svg16"
   sodipodi:docname="logo-white.svg"
   inkscape:version="1.0.2 (e86c870879, 2021-01-15)">
  <metadata
     id="metadata22">
    <rdf:RDF>
      <cc:Work
         rdf:about="">
        <dc:format>image/svg+xml</dc:format>
        <dc:type
           rdf:resource="http://purl.org/dc/dcmitype/StillImage" />
        <dc:title></dc:title>
      </cc:Work>
    </rdf:RDF>
  </metadata>
  <defs
     id="defs20" />
  <sodipodi:namedview
     pagecolor="#ffffff"
     bordercolor="#666666"
     borderopacity="1"
     objecttolerance="10"
     gridtolerance="10"
     guidetolerance="10"
     inkscape:pageopacity="0"
     inkscape:pageshadow="2"
     inkscape:window-width="1920"
     inkscape:window-height="1013"
     id="namedview18"
     showgrid="false"
     inkscape:pagecheckerboard="true"
     inkscape:zoom="1.77444"
     inkscape:cx="406.88087"
     inkscape:cy="102.14661"
     inkscape:window-x="0"
     inkscape:window-y="0"
     inkscape:window-maximized="1"
     inkscape:current-layer="svg16" />
  <g
     fill="#ffffff"
     id="g14">
    <path
       d="M11.3 157.9 c-5.9 -2.9 -8.9 -6.9 -10.4 -13.5 -1.1 -4.9 -1 -6.9 0.4 -13.9 9.3 -45.1 71.2 -110.5 120.7 -127.6 8.5 -2.9 22.9 -3.3 27.7 -0.7 11 6.1 12.6 21.6 4.4 42.3 -3.9 9.6 -7.1 15.6 -16.3 29.7 l-7 10.8 -0.8 13.5 c-0.7 10.7 -1.3 14.6 -3 18.1 -5 10.1 -15.6 13.3 -32.7 9.8 -2.8 -0.5 -4.1 0 -10 4.4 -19.1 14.1 -37.1 23.7 -50.9 27.2 -10.1 2.6 -16.8 2.6 -22.1 -0.1z m22.3 -12.4 c13.3 -4.5 30.6 -14.3 44.6 -25.2 l5.7 -4.5 -0.6 -23.9 -0.6 -23.9 5.6 0 5.7 0 0 17.3 c0 9.4 0.4 17.8 0.9 18.5 0.5 0.9 3.3 -1.3 9.6 -8 10.7 -11.2 14.5 -16.9 14.5 -21.8 0 -4.3 1.4 -6 5.1 -6 3.5 0 7.1 -4.3 13.2 -15.8 6 -11.4 9.8 -22.9 10 -30.4 0.1 -5.2 -0.2 -6.3 -2.2 -7.9 -4.9 -4 -16.3 -1.6 -33.6 7.1 -24.6 12.3 -49.9 33.9 -71.5 61.1 -16.6 20.8 -28 44.2 -28 57.3 0 8.6 7.8 10.7 21.6 6.1z m77.7 -28.9 c5 -2.1 7 -5 7.5 -11.1 0.3 -3.4 0.1 -5.5 -0.6 -5.5 -1.2 0 -16.2 15.8 -16.2 17.1 0 1.4 5.6 1.1 9.3 -0.5z"
       id="path2" />
    <path
       d="M150.5 143.8 c-0.3 -0.7 -0.4 -12.8 -0.3 -26.8 l0.3 -25.5 4 0.2 c2.2 0.2 4.5 1 5.2 1.9 1 1.4 1.5 1.3 5.2 -0.5 12.3 -6.3 25.1 2.4 25.1 16.9 0 7.5 -3 13.3 -8.6 16.6 -3.7 2.2 -5.2 2.5 -10.1 2.1 -3.2 -0.3 -6.7 -0.6 -7.8 -0.8 -1.8 -0.4 -2 0.3 -2.5 8.1 l-0.5 8.5 -4.8 0.3 c-3.2 0.2 -4.9 -0.1 -5.2 -1z m23.5 -24.3 c6.6 -3.4 7.6 -12.1 1.9 -16.9 -4.1 -3.5 -8.3 -3.4 -12 0.3 -4.9 5 -3.5 14.7 2.5 17.1 3.1 1.3 4.4 1.2 7.6 -0.5z"
       id="path4" />
    <path
       d="M227.2 124.8 c-1.1 -2.9 -6.8 -16.5 -12.6 -30.3 -5.7 -13.7 -10.2 -25.3 -10 -25.7 0.3 -0.4 2.9 -0.8 5.9 -0.8 l5.3 0 7.3 18.1 c6.1 15.5 7.4 17.9 8.5 16.5 0.6 -0.9 3.8 -8.5 6.9 -16.9 3.2 -8.4 6.2 -15.8 6.8 -16.5 0.7 -0.8 2.8 -1.2 6.1 -1 4.3 0.3 5.1 0.6 4.8 2.2 -0.4 2 -16.1 39.8 -21.5 51.9 -2 4.2 -4 7.7 -4.5 7.7 -0.5 0 -1.9 -2.4 -3 -5.2z"
       id="path6" />
    <path
       d="M276.5 129.1 c-14.7 -3.6 -20 -19.6 -10.2 -30.8 3.9 -4.5 8.2 -6.3 14.7 -6.3 5.9 0 9.7 1.7 13.2 5.8 2.7 3.3 5.4 9 4.5 9.8 -0.3 0.3 -5.4 2.3 -11.3 4.5 -6 2.1 -11.3 4.4 -11.8 4.9 -2 2 1.7 3.1 8.1 2.5 6.1 -0.5 6.3 -0.5 7.7 2.3 0.8 1.5 1.1 3.3 0.8 3.9 -0.6 1 -10.7 4.5 -12.1 4.2 -0.3 -0.1 -1.9 -0.4 -3.6 -0.8z m4.8 -22.3 c5 -2.2 5.9 -4.1 2.8 -5.8 -5.1 -2.7 -12.1 1.1 -12.1 6.5 0 3 0.6 2.9 9.3 -0.7z"
       id="path8" />
    <path
       d="M315.7 128.3 c-0.4 -0.3 -0.7 -8.4 -0.7 -18 l0 -17.3 3.5 0 c1.9 0 4.5 0.5 5.8 1.1 1.9 0.9 3.1 0.7 5.5 -0.5 1.7 -0.9 5.4 -1.6 8.2 -1.6 4.3 0 5.6 0.5 8 2.8 3.5 3.5 4.2 7.9 3.8 22.7 l-0.3 11 -5 0 -5 0 -0.3 -12.4 c-0.1 -7.1 -0.7 -13 -1.4 -13.8 -1.5 -1.8 -6.3 -1.6 -8.3 0.4 -2.6 2.6 -3.4 5.5 -4.1 16.2 l-0.7 10.1 -4.2 0 c-2.3 0 -4.5 -0.3 -4.8 -0.7z"
       id="path10" />
    <path
       d="M372.7 128.3 c-0.4 -0.3 -0.7 -5.6 -0.7 -11.7 0 -13.3 -0.5 -15.2 -3.6 -16 -3.3 -0.9 -3.4 -6.1 -0.1 -7.2 3.2 -1 3.7 -2.2 3.7 -9 0 -6.8 0.5 -7.4 6.5 -7.4 l3.4 0 0.3 7.8 0.3 7.7 3.5 0.3 c8.7 0.9 7.9 8.2 -0.9 8.2 l-3.1 0 0 14 0 14 -4.3 0 c-2.4 0 -4.7 -0.3 -5 -0.7z"
       id="path12" />
  </g>
</svg>
